<?xml version="1.0" standalone="no"?>
<!DOCTYPE svg PUBLIC "-//W3C//DTD SVG 20010904//EN"
 "http://www.w3.org/TR/2001/REC-SVG-20010904/DTD/svg10.dtd">
<svg version="1.0" xmlns="http://www.w3.org/2000/svg"
 width="1200.000000pt" height="1234.000000pt" viewBox="0 0 1200.000000 1234.000000"
 preserveAspectRatio="xMidYMid meet">

<g transform="translate(0.000000,1234.000000) scale(0.100000,-0.100000)"
fill="#000000" stroke="none">
<path d="M0 6170 l0 -6170 6000 0 6000 0 0 6170 0 6170 -6000 0 -6000 0 0
-6170z m10414 6080 c621 -45 1080 -361 1209 -834 18 -67 22 -106 21 -221 0
-122 -4 -151 -27 -228 -31 -99 -70 -182 -131 -275 l-41 -64 -40 7 c-283 45
-387 48 -484 15 -80 -26 -131 -62 -240 -163 -88 -82 -119 -102 -160 -108 -23
-4 -27 2 -49 71 -20 63 -23 91 -20 170 3 82 8 105 36 163 17 38 41 82 53 99
l22 30 23 -29 c12 -15 33 -49 45 -75 23 -50 53 -67 44 -25 -58 269 -68 326
-74 432 l-6 120 -85 22 c-47 12 -100 22 -119 22 -29 1 -33 4 -28 22 6 24 -37
46 -284 144 -79 32 -149 62 -156 67 -6 5 -19 25 -28 45 -17 36 -17 37 3 53 18
15 42 16 190 12 l170 -5 7 42 c4 23 4 45 1 48 -10 10 -171 23 -266 21 -86 -2
-100 0 -152 25 -68 33 -98 71 -98 121 0 90 90 184 233 243 45 19 89 28 162 33
55 4 107 8 115 8 8 1 78 -3 154 -8z m-8402 -11 c118 -25 240 -99 288 -176 59
-92 33 -168 -72 -213 -46 -20 -73 -23 -199 -25 -80 -2 -164 -6 -187 -10 -42
-7 -42 -7 -42 -52 l0 -45 183 3 c100 2 188 0 195 -4 19 -13 14 -53 -10 -81
-14 -16 -75 -46 -158 -80 -235 -94 -309 -131 -304 -153 5 -17 -4 -20 -73 -30
-43 -7 -101 -19 -128 -27 l-51 -16 -1 -93 c-1 -57 -12 -144 -29 -223 -51 -248
-52 -254 -40 -254 6 0 24 24 39 54 16 30 37 62 48 72 19 17 20 17 39 -2 26
-27 77 -131 89 -184 18 -79 13 -164 -15 -250 -26 -77 -28 -79 -53 -73 -47 11
-76 30 -166 113 -173 156 -248 186 -450 177 -105 -4 -219 -19 -317 -40 -33 -7
-170 234 -203 358 -25 92 -31 284 -11 378 93 453 517 784 1116 872 108 16 442
19 512 4z m4323 -49 c1054 -33 1962 -165 2859 -415 326 -91 788 -253 1038
-365 l48 -21 -20 -39 c-11 -21 -51 -103 -89 -182 -37 -79 -164 -339 -281 -578
-117 -239 -251 -514 -297 -610 -47 -96 -86 -176 -88 -178 -1 -2 -58 20 -126
49 -830 347 -1750 567 -2704 646 -298 25 -1055 25 -1345 0 -972 -83 -1851
-293 -2690 -645 -52 -22 -96 -39 -97 -39 -1 1 -108 225 -238 497 -131 272
-300 625 -376 784 -77 160 -136 293 -132 297 9 9 174 79 313 134 1034 407
2292 639 3620 668 63 2 156 4 205 5 50 1 230 -3 400 -8z m-6127 -695 c92 -59
92 -60 87 -95 -13 -93 -17 -271 -6 -339 6 -40 9 -76 6 -79 -9 -9 -73 58 -112
116 -67 102 -99 239 -87 380 3 46 9 82 13 80 3 -2 48 -30 99 -63z m11704 -72
c0 -130 -21 -218 -70 -303 -25 -44 -109 -140 -121 -140 -4 0 -2 33 5 73 17 91
16 200 0 300 l-13 78 91 63 c50 35 95 60 100 55 5 -4 8 -61 8 -126z m-10803
-864 c60 -21 94 -44 203 -142 94 -85 138 -113 206 -128 44 -10 52 -16 52 -34
0 -18 7 -24 35 -29 101 -19 192 -83 230 -161 25 -51 27 -63 22 -138 -6 -99
-39 -204 -73 -234 -77 -70 -217 31 -371 265 -43 66 -86 134 -95 151 l-18 32
-70 -37 c-188 -99 -341 -286 -390 -480 -65 -251 23 -512 255 -762 76 -81 77
-83 61 -107 l-16 -24 -55 19 c-140 48 -282 158 -348 268 -158 263 -98 625 171
1027 69 103 78 122 65 132 -8 6 -63 37 -121 67 -200 105 -312 198 -297 245 3
12 19 28 34 35 57 30 325 66 421 58 25 -3 69 -13 99 -23z m10195 1 c165 -28
199 -64 130 -140 -44 -49 -174 -136 -297 -200 -48 -25 -87 -47 -87 -51 0 -3
29 -49 65 -103 203 -308 291 -601 251 -836 -23 -136 -69 -224 -165 -321 -79
-78 -145 -121 -243 -157 -56 -21 -58 -21 -68 -2 -17 31 -13 39 56 113 176 191
264 389 264 597 0 220 -92 409 -272 561 -60 50 -185 126 -192 117 -2 -1 -22
-37 -46 -78 -139 -243 -279 -390 -369 -390 -64 0 -125 135 -125 280 -1 66 3
82 30 130 37 65 100 112 188 139 45 14 62 24 64 38 2 15 18 24 60 36 67 19 90
35 210 144 95 86 165 129 236 143 52 11 171 3 310 -20z m-5049 -140 c1091 -36
2100 -239 3005 -605 91 -37 178 -72 193 -78 23 -10 31 -24 49 -82 26 -86 89
-249 125 -318 150 -296 395 -557 656 -699 l79 -43 -7 -1290 c-3 -709 -10
-1814 -15 -2455 l-9 -1165 -34 -125 c-226 -811 -729 -1450 -1595 -2028 -392
-262 -826 -495 -1737 -931 -332 -159 -709 -352 -859 -441 l-87 -51 -102 59
c-198 115 -415 227 -1090 561 -1020 505 -1382 711 -1812 1033 -700 523 -1116
1108 -1275 1793 l-30 130 -15 1555 c-8 855 -17 1875 -20 2265 -3 391 -8 794
-11 896 l-5 185 67 44 c245 159 469 362 599 545 105 148 196 347 227 494 l13
64 70 32 c104 48 338 136 540 205 794 269 1650 422 2520 449 132 4 247 8 255
9 8 1 146 -3 305 -8z m-4814 -625 c88 -130 182 -187 309 -188 36 0 75 3 88 7
21 7 22 5 22 -61 0 -196 -62 -342 -183 -434 -64 -48 -136 -69 -233 -69 -140 1
-271 61 -398 182 l-71 68 25 20 c16 12 33 17 45 13 11 -3 56 -6 101 -6 70 -1
86 3 126 26 128 75 108 283 -41 432 -22 22 -40 43 -41 46 -1 18 80 38 139 36
l65 -2 47 -70z m9374 61 c19 -8 35 -18 35 -22 0 -3 -20 -28 -45 -56 -85 -95
-130 -227 -107 -314 26 -97 80 -136 191 -136 36 -1 80 2 96 6 22 4 37 0 55
-14 l25 -19 -70 -69 c-117 -114 -232 -171 -366 -179 -244 -16 -415 173 -422
466 l-2 95 90 -2 c81 -3 96 0 150 26 67 32 139 104 181 183 l27 49 64 0 c35 0
79 -7 98 -14z m222 -150 c24 -21 28 -32 27 -73 -1 -62 -31 -130 -84 -187 -86
-93 -172 -77 -172 31 1 92 68 198 147 234 51 23 49 24 82 -5z"/>
<path d="M10342 11954 c-47 -33 -17 -114 43 -114 35 0 65 28 65 61 0 57 -60
87 -108 53z"/>
<path d="M11046 11405 c-22 -7 -65 -39 -96 -70 l-57 -56 -63 16 c-34 9 -66 13
-71 8 -4 -4 -9 -24 -11 -43 -3 -34 -2 -35 50 -49 44 -12 52 -18 50 -35 -2 -16
-9 -20 -30 -18 l-28 3 0 -64 c0 -37 -5 -67 -10 -69 -20 -6 53 -100 104 -134
28 -18 77 -42 109 -53 59 -21 215 -41 313 -41 l54 0 0 70 0 70 -102 0 c-243 1
-373 69 -366 195 3 47 5 51 39 67 20 9 51 35 69 58 65 83 144 92 221 26 24
-20 45 -36 48 -36 3 0 16 16 28 34 l22 35 -36 32 c-75 65 -155 83 -237 54z"/>
<path d="M1632 11953 c-31 -28 -35 -56 -11 -86 39 -51 119 -25 119 38 0 57
-64 85 -108 48z"/>
<path d="M839 11406 c-20 -7 -57 -30 -82 -50 l-46 -37 21 -35 c11 -19 24 -34
28 -34 4 0 27 16 50 35 78 65 161 57 225 -21 21 -26 53 -53 71 -60 71 -30 72
-117 2 -180 -64 -59 -164 -84 -335 -84 l-103 0 0 -72 0 -71 131 6 c142 7 238
26 311 63 91 46 173 139 148 169 -6 8 -10 37 -9 67 3 52 2 53 -24 51 -15 -1
-27 2 -27 7 0 5 -2 15 -5 22 -4 11 9 18 50 27 53 12 55 14 55 44 0 56 -9 60
-84 41 l-68 -17 -57 57 c-80 79 -165 103 -252 72z"/>
<path d="M5615 12010 c-1040 -33 -2007 -185 -2923 -460 -305 -91 -672 -223
-672 -241 0 -8 605 -1237 613 -1245 2 -2 106 31 232 72 850 280 1730 443 2660
494 243 13 860 13 1091 0 691 -39 1295 -129 1931 -285 265 -66 593 -161 803
-234 63 -22 118 -37 121 -33 4 4 98 210 209 457 111 248 236 523 276 613 41
90 74 165 74 167 0 1 -8 5 -17 8 -10 3 -98 34 -196 70 -905 334 -2047 553
-3167 606 -313 15 -757 20 -1035 11z m1200 -129 c946 -75 1607 -186 2365 -397
160 -45 576 -182 667 -219 l32 -14 -43 -98 c-135 -303 -419 -929 -425 -935 -4
-5 -61 10 -126 32 -785 265 -1743 441 -2670 491 -292 15 -1094 6 -1345 -15
-895 -77 -1645 -224 -2387 -466 -100 -33 -184 -60 -188 -60 -9 0 -529 1050
-523 1056 8 8 251 92 433 150 784 251 1696 416 2615 474 96 6 200 12 230 14
124 8 1235 -3 1365 -13z"/>
<path d="M5987 11428 c-4 -46 -7 -145 -7 -220 l0 -138 50 0 50 0 1 53 c1 28 4
95 8 147 l6 95 39 -140 c21 -77 44 -146 49 -153 6 -8 27 -12 56 -10 l45 3 46
142 c25 78 48 145 51 148 4 3 4 -62 1 -144 l-5 -151 50 0 c44 0 51 3 57 23 3
12 6 111 6 220 l0 198 -82 -3 -81 -3 -43 -129 c-24 -71 -45 -131 -47 -133 -4
-4 -36 95 -72 220 l-16 57 -78 0 -78 0 -6 -82z"/>
<path d="M5596 11478 c-8 -13 -47 -102 -86 -198 -40 -96 -79 -187 -86 -202
l-15 -28 60 0 60 0 17 49 18 48 65 7 c132 12 133 12 165 -45 l28 -51 49 4 c27
3 52 7 55 10 2 3 -44 100 -103 216 l-108 212 -52 0 c-44 0 -55 -4 -67 -22z
m101 -172 l32 -64 -60 -7 c-33 -4 -62 -5 -64 -3 -6 6 47 138 55 138 3 0 20
-29 37 -64z"/>
<path d="M6691 11376 c-132 -249 -162 -316 -144 -316 10 0 35 -3 55 -6 36 -6
37 -5 62 44 l26 50 77 -4 c120 -8 122 -9 145 -64 l21 -50 58 0 59 0 -15 33
c-8 17 -49 115 -91 217 -41 102 -79 188 -82 191 -4 4 -31 9 -59 11 l-53 5 -59
-111z m137 -78 c12 -35 22 -66 22 -70 0 -5 -27 -8 -60 -8 -33 0 -60 2 -60 5 0
10 65 135 70 135 3 0 15 -28 28 -62z"/>
<path d="M5065 11455 c-90 -32 -131 -120 -83 -180 28 -36 65 -50 163 -65 96
-15 115 -23 115 -55 0 -35 -36 -55 -98 -55 -43 0 -58 5 -77 25 -14 13 -25 29
-25 34 0 12 -89 4 -103 -9 -12 -10 8 -47 46 -87 56 -60 194 -67 296 -15 51 26
88 99 72 144 -24 68 -78 97 -211 113 -68 9 -90 20 -90 46 0 24 35 39 91 39 30
0 47 -7 66 -26 22 -23 32 -26 70 -21 24 2 47 8 51 11 13 13 -33 79 -68 98 -42
22 -156 24 -215 3z"/>
<path d="M7130 11443 c0 -3 -7 -100 -16 -216 -8 -115 -14 -211 -12 -212 2 -2
27 -7 55 -11 l51 -6 7 91 8 91 36 -6 c48 -9 54 -15 122 -115 l58 -86 57 -6
c32 -3 60 -4 62 -2 7 6 -70 127 -106 167 l-33 37 39 10 c45 13 69 36 82 80 18
63 -23 133 -89 151 -20 5 -98 16 -174 25 -162 18 -147 17 -147 8z m260 -107
c29 -9 36 -16 38 -43 4 -46 -22 -56 -118 -46 l-75 8 -3 53 -3 53 63 -7 c35 -4
79 -12 98 -18z"/>
<path d="M4438 11373 l-37 -4 -51 -162 c-28 -89 -62 -193 -75 -232 l-23 -70
23 -3 c13 -2 38 1 56 5 28 8 35 16 49 58 17 49 17 50 76 61 144 30 138 30 169
-21 l26 -46 47 7 c26 3 52 9 58 13 6 4 -39 83 -115 203 -98 153 -130 197 -146
196 -11 -1 -37 -3 -57 -5z m75 -185 l37 -63 -58 -11 c-31 -6 -60 -9 -63 -8 -8
4 32 144 41 144 3 0 22 -28 43 -62z"/>
<path d="M7650 11344 c-1 -22 -11 -119 -23 -216 -25 -197 -30 -180 45 -192 20
-4 38 -3 41 1 7 12 51 422 46 427 -2 3 -28 8 -57 12 l-52 7 0 -39z"/>
<path d="M7866 11338 c-7 -21 -58 -420 -54 -423 2 -2 24 -6 49 -10 53 -8 48
-19 70 148 7 53 15 97 19 97 4 0 40 -63 79 -140 40 -76 78 -143 84 -148 7 -5
33 -12 58 -16 l46 -7 22 165 c12 91 25 189 28 219 l5 54 -38 6 c-22 4 -44 7
-50 7 -6 0 -18 -57 -29 -136 -10 -74 -21 -132 -25 -127 -4 4 -40 72 -81 151
-40 79 -80 147 -88 151 -33 17 -91 22 -95 9z"/>
<path d="M4025 11291 c-123 -24 -190 -41 -189 -49 1 -7 2 -24 3 -38 1 -25 3
-26 44 -21 23 4 56 9 74 13 38 7 34 19 58 -171 24 -191 19 -178 74 -170 25 4
49 10 53 13 3 4 -5 83 -18 176 -13 93 -22 172 -19 174 2 2 34 11 71 18 37 8
70 16 72 19 9 9 -10 75 -21 74 -7 0 -97 -17 -202 -38z"/>
<path d="M8356 11029 c-20 -117 -34 -215 -29 -219 18 -16 226 -60 284 -60 60
0 63 1 109 48 40 39 50 57 60 106 16 76 6 133 -31 189 -37 56 -82 78 -237 118
-63 16 -116 29 -116 29 -1 0 -19 -95 -40 -211z m228 80 c84 -22 110 -87 79
-191 -25 -86 -45 -96 -142 -78 -40 7 -74 17 -77 21 -4 7 31 220 42 258 4 13
10 13 98 -10z"/>
<path d="M3519 11176 c-160 -43 -238 -165 -198 -311 35 -128 161 -177 315
-121 152 55 214 194 150 332 -45 97 -142 134 -267 100z m123 -87 c27 -14 58
-85 58 -132 0 -106 -103 -180 -198 -142 -47 19 -72 60 -79 128 -4 43 -1 58 19
87 13 19 39 43 58 52 39 20 111 24 142 7z"/>
<path d="M3150 11053 l-65 -24 -74 -120 c-40 -66 -76 -118 -78 -115 -3 3 -14
40 -24 82 -10 42 -20 78 -22 80 -2 2 -23 -2 -48 -9 -43 -13 -44 -14 -42 -53 1
-34 79 -368 89 -386 4 -6 88 22 99 34 4 4 0 32 -9 63 -9 30 -14 61 -10 68 4 7
18 29 31 50 l24 38 92 -76 c51 -41 96 -73 102 -71 5 3 34 13 63 22 28 10 52
20 52 23 0 5 -194 150 -242 182 -5 3 23 56 63 118 39 61 70 113 68 114 -2 2
-33 -7 -69 -20z"/>
<path d="M8998 10973 c-165 -200 -227 -284 -215 -288 6 -3 31 -11 54 -19 l42
-15 33 41 33 40 95 -29 95 -29 14 -57 c13 -57 14 -57 64 -72 28 -8 53 -15 55
-15 7 0 -16 113 -79 397 l-20 91 -46 16 c-26 9 -50 16 -54 16 -4 0 -36 -35
-71 -77z m107 -128 c4 -27 9 -57 11 -67 4 -15 1 -15 -50 1 -31 9 -58 20 -62
23 -3 4 13 32 37 63 47 63 54 61 64 -20z"/>
<path d="M5570 10293 c-1001 -56 -1902 -255 -2762 -610 l-156 -65 -11 -63
c-25 -144 -105 -330 -203 -472 -112 -163 -329 -363 -550 -508 l-107 -70 -1
-283 c0 -155 4 -743 10 -1305 5 -562 15 -1506 20 -2097 12 -1199 7 -1126 87
-1390 206 -687 686 -1267 1483 -1795 365 -242 585 -362 1515 -825 659 -329
884 -446 1120 -585 l30 -18 135 78 c181 104 491 263 850 435 713 343 1037 510
1349 697 612 368 1038 729 1351 1148 133 178 207 300 305 500 95 193 159 365
209 557 l35 133 10 1925 c6 1059 13 2128 16 2376 l6 450 -82 45 c-285 152
-507 387 -649 684 -47 99 -99 239 -120 323 -13 51 -25 58 -295 165 -811 322
-1684 509 -2645 567 -148 9 -809 11 -950 3z m1120 -108 c983 -85 1800 -277
2591 -610 l86 -36 23 -76 c103 -348 320 -666 592 -866 68 -50 197 -132 220
-139 12 -4 -8 -3883 -22 -4443 l-8 -320 -42 -135 c-235 -758 -702 -1341 -1505
-1877 -383 -256 -753 -455 -1585 -853 -404 -193 -748 -370 -966 -496 l-30 -17
-95 55 c-189 111 -373 206 -1072 552 -730 363 -979 496 -1274 679 -725 452
-1185 911 -1458 1456 -85 170 -143 328 -197 536 -37 144 -32 -56 -53 2155 -8
877 -18 1843 -21 2146 l-7 550 79 54 c323 218 521 422 662 680 37 69 96 226
113 303 15 70 16 71 169 132 838 338 1761 538 2690 585 238 12 902 3 1110 -15z"/>
<path d="M5945 9945 l-57 -175 -183 0 c-248 0 -247 2 -27 -154 67 -48 122 -93
122 -100 0 -7 -22 -82 -50 -167 -27 -85 -50 -160 -50 -167 0 -36 38 -18 175
82 l145 105 145 -105 c137 -100 175 -118 175 -81 0 7 -22 83 -50 167 -27 84
-50 159 -50 166 0 6 55 51 123 100 149 107 167 122 160 140 -4 11 -41 14 -187
14 l-182 0 -58 175 c-47 143 -61 175 -76 175 -16 0 -29 -31 -75 -175z m131
-57 l49 -153 163 2 c89 1 162 -1 162 -5 0 -4 -59 -49 -131 -101 -95 -68 -129
-98 -126 -110 3 -9 25 -78 50 -153 24 -76 42 -138 38 -138 -3 0 -61 41 -129
90 -67 50 -127 90 -132 90 -5 0 -65 -40 -132 -90 -68 -49 -126 -90 -129 -90
-4 0 15 68 42 151 27 83 47 154 45 158 -2 3 -61 47 -130 96 -69 50 -126 93
-126 97 0 4 73 6 163 5 l162 -2 50 153 c27 83 52 152 55 152 3 0 28 -69 56
-152z"/>
<path d="M5900 9203 c-58 -24 -152 -64 -210 -88 -250 -102 -2810 -1169 -2856
-1189 l-51 -24 -7 -83 c-4 -46 -15 -169 -26 -274 -11 -104 -33 -328 -50 -497
-16 -170 -44 -446 -60 -615 -17 -170 -39 -396 -50 -503 -11 -107 -22 -220 -25
-250 -3 -30 -16 -167 -30 -305 -30 -308 -65 -664 -105 -1070 -49 -509 -62
-608 -77 -631 -13 -20 -11 -23 33 -49 66 -39 114 -85 181 -173 83 -111 109
-140 172 -194 107 -92 293 -138 507 -125 l91 5 10 -56 c36 -191 136 -307 310
-362 99 -32 285 -38 452 -15 l127 17 63 -31 c35 -18 81 -45 103 -61 22 -16 63
-36 91 -46 29 -9 72 -28 96 -41 43 -25 49 -24 63 8 2 3 624 2 1383 -3 1063 -7
1381 -12 1387 -21 6 -9 18 -6 47 10 22 13 66 32 98 44 32 12 76 34 98 49 22
14 66 41 97 59 l58 32 112 -17 c311 -46 540 1 659 135 59 66 85 130 114 276 4
19 11 20 117 17 233 -7 384 36 492 137 32 31 89 97 126 146 81 110 146 175
206 206 46 25 53 39 30 58 -8 7 -17 41 -21 84 -8 91 -89 931 -140 1452 -35
354 -73 753 -160 1650 -14 143 -37 370 -50 505 -13 135 -30 307 -36 382 -7 76
-15 142 -18 146 -3 5 -78 40 -166 77 -88 37 -189 80 -225 95 -36 15 -121 51
-190 80 -69 29 -154 65 -190 80 -36 15 -150 64 -255 108 -221 93 -826 348
-1100 464 -221 93 -328 139 -750 317 -183 78 -321 131 -340 130 -16 0 -77 -21
-135 -46z m-659 -880 c40 -36 44 -38 104 -35 77 4 139 -12 160 -41 22 -31 18
-103 -9 -169 l-23 -57 23 -22 c53 -49 7 -123 -91 -148 -67 -17 -79 -2 -36 43
44 45 40 82 -10 111 -32 18 -35 23 -28 52 18 86 -42 140 -114 102 -18 -10 -23
-8 -36 12 -9 13 -33 42 -53 63 -38 38 -38 39 -22 65 22 34 55 61 76 61 10 0
37 -17 59 -37z m2004 -64 c114 -82 129 -186 40 -294 -20 -25 -39 -45 -43 -45
-17 0 -53 166 -59 265 -7 120 -5 122 62 74z m-338 -90 c41 -20 151 -127 174
-170 10 -19 9 -21 -18 -15 -15 3 -79 11 -142 16 -198 18 -257 40 -354 129
l-60 56 119 6 c157 8 230 2 281 -22z m708 -113 c92 -121 84 -266 -20 -373 -28
-29 -55 -53 -61 -53 -5 0 -18 21 -29 48 -26 60 -26 167 -2 242 26 77 68 170
78 170 4 0 20 -15 34 -34z m-3025 -155 l36 -28 69 18 c150 39 226 12 240 -85
6 -37 -7 -143 -21 -181 -3 -7 7 -21 24 -31 43 -25 55 -57 38 -97 -25 -61 -140
-136 -178 -116 -16 9 -15 13 12 51 51 69 33 122 -44 135 l-36 6 0 54 c0 47 -4
59 -29 84 -36 35 -53 36 -108 5 l-42 -24 -26 34 c-14 18 -46 45 -70 60 -50 29
-52 32 -29 80 38 79 95 91 164 35z m2561 -16 c48 -17 150 -84 157 -103 2 -7
-6 -12 -22 -12 -13 0 -80 -13 -148 -30 -190 -46 -314 -37 -409 31 l-32 22 50
13 c27 7 94 31 148 53 112 45 180 52 256 26z m790 -201 c85 -149 71 -309 -36
-431 -40 -47 -55 -53 -55 -23 0 12 -12 43 -26 71 -44 88 -33 195 38 367 17 40
35 71 41 69 5 -1 23 -25 38 -53z m-557 -69 c59 -24 156 -84 156 -97 0 -3 -19
-9 -42 -13 -24 -4 -85 -18 -137 -31 -182 -46 -280 -42 -395 19 l-58 31 83 27
c46 16 122 42 169 58 103 37 147 38 224 6z m880 -358 c85 -190 39 -377 -118
-483 -28 -19 -54 -34 -57 -34 -4 0 -7 26 -6 58 0 31 -1 95 -3 142 -3 73 0 93
22 146 24 57 124 224 135 224 2 0 15 -24 27 -53z m-1740 9 c215 -37 359 -78
589 -168 110 -43 127 -53 127 -72 0 -118 -52 -439 -100 -621 -46 -174 -158
-477 -187 -506 -7 -7 -51 0 -100 16 -8 3 -3 25 18 72 114 249 230 668 255 914
l6 65 -59 27 c-206 92 -470 167 -703 198 -134 19 -478 16 -613 -4 -224 -34
-434 -91 -655 -179 l-103 -41 6 -41 c58 -360 141 -675 244 -929 l40 -98 -23
-9 c-59 -22 -69 -18 -97 41 -68 140 -160 445 -209 691 -22 110 -62 410 -55
416 9 9 210 86 305 117 194 62 425 113 617 135 43 5 184 7 313 5 198 -2 258
-7 384 -29z m1092 19 c61 -18 137 -81 183 -153 17 -27 31 -51 31 -54 0 -3 -17
-2 -37 2 -21 5 -85 14 -143 20 -115 12 -193 31 -254 62 -39 20 -146 114 -146
128 0 15 313 10 366 -5z m-3323 -9 c18 -7 40 -24 48 -37 20 -30 45 -110 54
-166 6 -37 10 -43 30 -43 13 0 36 -11 51 -24 22 -18 28 -32 27 -60 -1 -43 -41
-114 -83 -150 -35 -29 -65 -25 -55 8 30 102 11 139 -69 135 -49 -3 -51 -2 -60
30 -14 50 -58 91 -97 91 -25 0 -40 -9 -69 -40 l-38 -41 -36 22 c-20 12 -60 24
-89 28 l-52 6 2 54 c4 96 43 124 132 98 l51 -15 42 33 c47 35 99 64 138 76 36
11 37 10 73 -5z m2083 -131 c208 -26 465 -96 642 -175 54 -24 71 -37 68 -49
-3 -9 -8 -41 -11 -71 -22 -181 -110 -512 -190 -715 -84 -215 -84 -214 -141
-199 -20 5 -20 9 22 111 56 135 117 326 154 479 29 119 74 365 68 368 -15 10
-153 65 -233 93 -364 126 -741 146 -1124 59 -131 -30 -316 -90 -414 -135 l-68
-30 7 -38 c56 -325 113 -543 201 -771 30 -79 53 -145 51 -147 -2 -1 -19 -5
-39 -9 l-37 -7 -31 76 c-67 161 -131 360 -176 551 -26 112 -75 364 -75 390 0
39 418 171 664 209 224 35 433 38 662 10z m8 -110 c55 -8 150 -28 212 -44 106
-28 319 -104 338 -121 10 -9 -14 -156 -50 -310 -45 -194 -113 -400 -181 -553
l-26 -58 -41 6 c-79 12 -78 11 -57 53 40 80 111 273 145 397 43 159 89 396 79
405 -14 12 -154 67 -240 94 -147 46 -270 67 -428 73 -182 7 -312 -7 -490 -52
-104 -26 -335 -105 -354 -121 -6 -6 19 -151 51 -294 35 -155 101 -360 153
-475 38 -84 37 -95 -15 -95 -20 0 -29 8 -39 33 -51 128 -108 289 -137 391 -33
114 -104 440 -104 478 0 21 29 34 220 98 157 53 340 94 490 109 120 12 345 6
474 -14z m1157 -79 c19 -8 84 -24 144 -35 184 -36 240 -75 305 -212 29 -61 36
-89 25 -89 -3 0 -22 7 -43 16 -20 9 -82 32 -137 51 -131 46 -168 66 -228 121
-54 51 -125 162 -103 162 2 0 19 -6 37 -14z m-1201 -41 c154 -29 382 -103 412
-133 11 -11 -19 -173 -63 -341 -32 -123 -90 -287 -139 -394 -30 -67 -30 -67
-71 -67 -22 0 -39 3 -37 8 82 159 156 373 188 537 12 61 23 120 26 132 5 27
-27 45 -150 87 -305 105 -618 97 -932 -24 -120 -46 -113 -26 -77 -207 36 -176
82 -329 139 -452 20 -45 35 -83 33 -86 -3 -2 -23 -7 -46 -11 l-42 -6 -29 58
c-69 137 -151 399 -192 611 -28 146 -28 148 23 168 154 63 362 118 509 134
111 13 343 5 448 -14z m2081 -177 c17 -97 17 -224 0 -272 -29 -83 -131 -155
-244 -171 l-48 -7 20 33 c10 19 33 79 51 134 17 55 46 125 63 155 46 82 126
200 136 200 5 0 15 -33 22 -72z m-2186 26 c78 -8 206 -40 295 -75 l81 -31 -6
-42 c-23 -155 -92 -376 -167 -537 l-41 -89 -53 0 c-60 0 -65 7 -34 50 73 102
166 343 191 494 16 94 19 90 -114 134 -174 58 -345 65 -526 22 -67 -16 -205
-63 -219 -75 -2 -2 4 -42 12 -91 27 -151 76 -310 131 -422 29 -59 52 -108 51
-109 -1 -1 -28 -5 -59 -9 l-57 -7 -36 79 c-51 112 -108 289 -138 432 -38 179
-45 162 82 205 229 77 379 95 607 71z m-2129 -173 c31 -19 88 -97 120 -165 17
-35 20 -37 55 -31 88 15 124 -89 80 -233 -15 -50 -26 -71 -40 -75 -17 -4 -20
3 -26 54 -8 65 -35 109 -67 109 -11 0 -36 -9 -55 -21 l-34 -21 -40 46 c-33 38
-47 46 -74 46 -41 0 -71 -28 -85 -79 -5 -20 -10 -41 -10 -46 0 -6 -30 -10 -72
-10 -40 0 -85 -4 -100 -8 -25 -8 -27 -7 -38 45 -26 115 1 165 94 175 45 5 46
7 86 77 43 78 61 100 104 134 35 27 61 28 102 3z m3739 -91 c91 -34 144 -73
179 -133 26 -45 56 -167 56 -230 l0 -37 -132 88 c-197 132 -262 212 -275 337
l-6 54 49 -24 c27 -14 85 -39 129 -55z m-2871 -134 c5 -19 -93 -457 -120 -536
-4 -12 -264 460 -264 480 0 5 327 75 366 79 7 1 15 -10 18 -23z m2368 -23 c76
-15 138 -30 138 -34 0 -4 -41 -85 -90 -180 -50 -96 -105 -202 -123 -236 -17
-35 -34 -63 -37 -63 -6 0 -104 347 -103 364 1 6 11 48 24 93 16 55 29 83 38
83 8 0 77 -12 153 -27z m1187 -189 c1 -158 -35 -243 -136 -320 -43 -33 -137
-69 -210 -80 l-42 -6 71 138 c91 178 113 210 217 317 100 103 99 103 100 -49z
m-3396 -252 c24 -56 32 -84 24 -87 -25 -8 -259 -36 -264 -31 -2 2 21 109 53
237 l57 232 47 -134 c26 -74 63 -171 83 -217z m2373 -159 c-4 -4 -237 27 -244
33 -4 2 44 98 157 314 l86 165 3 -254 c1 -140 0 -256 -2 -258z m-2808 266 c68
-127 122 -233 120 -235 -8 -7 -239 -35 -248 -29 -12 7 -14 495 -2 495 4 0 62
-104 130 -231z m3075 161 c10 -16 58 -64 107 -106 158 -134 208 -241 197 -419
-3 -52 -8 -99 -12 -105 -3 -5 -21 9 -39 33 -17 23 -71 92 -120 152 -103 130
-164 246 -173 327 -6 59 3 148 15 148 4 0 16 -13 25 -30z m-624 -225 c23 -83
41 -153 41 -156 0 -5 -201 20 -208 27 -2 1 7 33 21 71 52 138 90 224 97 216 5
-4 26 -76 49 -158z m-1091 -23 c2 -30 -1 -44 -12 -48 -48 -18 -752 -202 -758
-198 -15 10 -79 146 -75 158 15 40 598 136 797 132 l45 -1 3 -43z m458 18 c83
-11 214 -33 290 -50 76 -16 139 -30 141 -30 17 0 -72 -159 -93 -167 -8 -3
-183 37 -389 88 l-375 94 0 49 0 49 138 -7 c75 -4 205 -16 288 -26z m-458
-162 l-3 -62 -105 -28 c-58 -16 -190 -51 -295 -79 -104 -28 -211 -57 -238 -64
l-47 -14 -27 42 c-14 23 -26 48 -27 56 -1 11 91 39 359 112 198 53 366 97 373
98 10 1 12 -15 10 -61z m414 -31 l367 -92 -32 -52 c-18 -29 -38 -53 -46 -53
-16 0 -652 159 -663 166 -10 6 -11 124 0 124 4 0 172 -42 374 -93z m-2347 -16
c30 -23 66 -56 81 -76 l26 -35 30 25 c16 14 40 25 53 25 53 0 95 -104 95 -235
0 -67 -3 -85 -18 -98 -17 -16 -19 -14 -35 36 -34 107 -94 125 -143 41 l-27
-45 -21 20 c-32 31 -78 44 -109 32 -41 -16 -60 -64 -54 -137 l5 -63 -37 -12
c-44 -14 -89 -44 -116 -77 l-21 -24 -25 38 c-74 115 -64 202 29 255 39 22 39
23 50 109 15 111 46 202 83 241 25 27 34 31 65 26 20 -3 60 -24 89 -46z m3560
-1 c8 -16 55 -72 104 -124 103 -110 147 -170 173 -238 33 -88 19 -227 -35
-333 l-20 -40 -10 25 c-38 94 -68 149 -138 257 -108 164 -132 219 -137 314 -4
61 0 85 16 122 12 26 23 47 26 47 3 0 12 -13 21 -30z m-1625 -110 c0 -57 -1
-60 -27 -67 -16 -3 -153 -37 -306 -73 l-278 -67 -31 44 c-16 25 -28 46 -26 47
5 5 641 174 656 175 8 1 12 -17 12 -59z m359 -20 c173 -44 316 -82 319 -85 5
-5 -33 -69 -51 -83 -10 -9 -291 51 -569 121 -27 7 -28 10 -28 67 0 33 3 60 8
60 4 0 148 -36 321 -80z m2077 -57 c-21 -256 -136 -398 -331 -411 -81 -5 -145
3 -145 19 0 22 128 196 192 261 53 54 265 208 286 208 3 0 2 -35 -2 -77z
m-2436 -98 c0 -41 -3 -75 -8 -75 -94 0 -317 -57 -414 -106 l-47 -24 -31 33
c-37 40 -84 106 -79 111 7 7 532 135 557 135 21 1 22 -3 22 -74z m323 13 c147
-35 267 -67 267 -71 0 -5 -19 -32 -42 -61 -23 -28 -43 -52 -44 -54 -1 -2 -35
8 -76 23 -100 36 -217 63 -315 71 l-83 7 0 73 c0 52 4 74 13 74 6 0 132 -28
280 -62z m1278 -278 c81 -177 92 -221 87 -344 -5 -118 -31 -195 -108 -314
l-47 -74 -6 74 c-4 41 -23 148 -42 239 -60 272 -57 396 12 538 25 53 27 54 37
30 5 -13 36 -80 67 -149z m715 -171 c-9 -58 -51 -153 -98 -221 -72 -107 -184
-175 -318 -192 -41 -6 -205 16 -218 28 -9 9 49 87 109 146 74 73 167 126 363
210 88 38 163 70 165 70 2 0 1 -18 -3 -41z m-902 -317 c14 -60 26 -137 26
-173 -1 -110 -54 -234 -160 -367 l-45 -57 -6 70 c-12 129 -9 298 5 352 19 71
57 150 105 222 23 34 43 61 46 61 2 0 15 -49 29 -108z m-3096 -38 l70 -25 25
25 c55 55 122 24 167 -77 l21 -47 -30 -30 c-16 -17 -33 -39 -36 -50 -8 -26
-17 -25 -46 6 -40 44 -100 84 -126 84 -29 0 -43 -32 -43 -100 0 -27 -4 -60
-10 -74 -8 -22 -16 -26 -50 -26 -79 0 -110 -40 -110 -140 l0 -60 -49 24 c-61
31 -111 81 -111 109 0 27 26 68 60 95 23 19 25 26 25 123 0 109 14 156 52 178
33 19 119 12 191 -15z m3742 -209 c0 -3 -9 -33 -20 -66 -26 -78 -56 -124 -113
-176 -88 -82 -193 -117 -342 -116 -88 1 -230 26 -240 43 -7 11 63 70 161 136
167 111 356 182 492 183 34 1 62 -1 62 -4z m-930 -183 c0 -136 -16 -210 -62
-291 -35 -61 -146 -176 -222 -230 l-48 -34 6 84 c18 221 53 335 132 431 37 46
170 158 186 158 5 0 8 -53 8 -118z m-2182 -166 c50 -26 108 -128 90 -159 -8
-15 -13 -13 -50 13 -67 49 -120 34 -134 -36 -5 -29 -7 -29 -66 -29 -53 0 -63
-3 -84 -28 -29 -34 -30 -62 -4 -102 l19 -29 -54 -49 c-30 -27 -55 -55 -55 -62
0 -26 -19 -26 -68 -1 -74 38 -83 83 -28 144 l34 37 -14 55 c-27 105 -13 180
39 207 38 19 114 21 186 3 53 -12 53 -12 84 19 34 34 63 39 105 17z m1827
-160 c-47 -235 -185 -414 -429 -557 l-39 -23 6 85 c9 115 41 239 84 329 53
111 166 221 293 284 l95 48 3 -43 c2 -23 -4 -78 -13 -123z m788 8 l46 -7 -25
-49 c-81 -161 -275 -239 -514 -209 -54 6 -118 18 -142 24 l-43 13 65 48 c124
92 298 158 457 175 110 12 106 12 156 5z m-355 -320 c6 -5 -84 -137 -120 -175
-77 -84 -192 -153 -304 -183 -86 -24 -254 -31 -367 -16 -87 11 -128 23 -117
33 222 197 479 325 694 346 62 7 205 3 214 -5z m-1540 -292 c11 -78 -121 -193
-208 -180 -49 6 -34 70 32 137 52 53 88 72 133 69 33 -3 41 -7 43 -26z"/>
<path d="M6205 2119 c-374 -4 -902 -11 -1173 -14 l-493 -7 -17 -26 c-13 -20
-17 -48 -16 -122 l0 -96 52 -48 c81 -76 117 -150 130 -270 7 -58 7 -59 47 -71
66 -20 121 -52 168 -99 l44 -45 1216 -7 1217 -7 0 29 c1 102 59 251 168 431
108 176 128 258 81 327 l-24 36 -360 -2 c-198 -1 -666 -5 -1040 -9z m820 -143
c197 -9 367 -18 376 -21 31 -10 54 -104 43 -175 -19 -115 -123 -168 -294 -150
-65 7 -65 7 -93 -26 -15 -18 -42 -37 -60 -43 -19 -7 -147 -13 -302 -15 -149
-2 -279 -7 -291 -10 -12 -4 -28 -23 -37 -41 -9 -18 -31 -44 -49 -58 -55 -42
-107 -50 -258 -43 -153 8 -187 13 -355 52 -112 25 -138 27 -394 30 -217 3
-277 6 -290 18 -30 26 -76 43 -136 51 -87 10 -142 46 -159 101 -9 29 34 79 79
94 30 10 39 8 80 -15 65 -38 117 -49 159 -31 41 17 50 30 42 60 -7 30 -48 47
-121 51 -42 3 -63 9 -72 21 -36 50 4 100 91 114 69 11 359 38 546 50 194 12
1073 4 1495 -14z"/>
<path d="M5280 1895 c0 -23 4 -25 45 -25 l45 0 0 -115 0 -115 35 0 35 0 0 115
0 115 45 0 c41 0 45 2 45 25 l0 25 -125 0 -125 0 0 -25z"/>
<path d="M5577 1914 c-4 -4 -7 -67 -7 -141 l0 -133 125 0 c118 0 125 1 125 20
0 19 -7 20 -90 20 l-90 0 0 40 0 40 81 0 c78 0 80 1 77 23 -3 20 -9 22 -80 25
l-78 3 0 29 0 30 86 0 c83 0 85 1 82 23 -3 21 -8 22 -114 25 -60 1 -113 -1
-117 -4z"/>
<path d="M5877 1913 c-4 -3 -7 -66 -7 -140 l0 -133 30 0 c29 0 30 1 30 49 l0
48 66 6 c82 6 114 31 114 88 0 49 -27 74 -87 83 -60 8 -138 8 -146 -1z m157
-59 c20 -20 20 -29 0 -49 -11 -11 -30 -15 -58 -13 -34 3 -42 7 -44 26 -2 13
-1 30 2 38 7 19 80 18 100 -2z"/>
<path d="M6170 1781 l0 -141 30 0 31 0 -3 138 -3 137 -27 3 -28 3 0 -140z"/>
<path d="M6382 1908 c-6 -8 -26 -50 -45 -93 -19 -44 -44 -101 -56 -127 l-20
-48 33 0 c28 0 36 5 46 30 12 29 15 30 77 30 63 0 65 -1 76 -30 10 -25 17 -30
45 -30 40 0 41 -6 -33 157 -50 107 -57 118 -83 121 -16 2 -34 -3 -40 -10z m62
-120 l15 -38 -40 0 c-44 0 -45 3 -23 55 17 41 24 39 48 -17z"/>
<path d="M6617 1914 c-4 -4 -7 -67 -7 -141 l0 -133 30 0 29 0 3 87 3 87 60
-84 c52 -73 65 -85 93 -88 l32 -3 0 140 0 141 -25 0 c-25 0 -25 -1 -25 -90 0
-49 -3 -90 -7 -89 -5 0 -35 39 -68 87 -45 66 -67 88 -86 90 -13 2 -28 0 -32
-4z"/>
</g>
</svg>
